<svg width="30" height="30" viewBox="0 0 30 30" fill="none" xmlns="http://www.w3.org/2000/svg">
<path d="M25.0211 3.74207H19.1044C18.9116 1.64661 17.1449 0 15 0C12.8552 0 11.0885 1.64661 10.8957 3.74207H4.97892C3.23028 3.74207 1.80766 5.16469 1.80766 6.91333C1.80766 8.61942 3.16208 10.0144 4.85204 10.0814V26.2579C4.85204 28.3213 6.53071 30 8.59411 30H21.4059C23.4693 30 25.148 28.3213 25.148 26.2579V10.0813C26.8379 10.0144 28.1923 8.61942 28.1923 6.91327C28.1923 5.16462 26.7698 3.74207 25.0211 3.74207ZM10.8748 24.7091C10.8748 25.2346 10.4488 25.6606 9.92341 25.6606C9.39797 25.6606 8.97207 25.2346 8.97207 24.7091V12.2041C8.97207 11.6786 9.39804 11.2527 9.92341 11.2527C10.4489 11.2527 10.8748 11.6787 10.8748 12.2041V24.7091ZM15.9514 24.7091C15.9514 25.2346 15.5254 25.6606 15 25.6606C14.4746 25.6606 14.0487 25.2346 14.0487 24.7091V12.2041C14.0487 11.6786 14.4747 11.2527 15 11.2527C15.5255 11.2527 15.9514 11.6787 15.9514 12.2041V24.7091ZM21.028 24.7091C21.028 25.2346 20.602 25.6606 20.0767 25.6606C19.5512 25.6606 19.1253 25.2346 19.1253 24.7091V12.2041C19.1253 11.6786 19.5512 11.2527 20.0767 11.2527C20.6021 11.2527 21.028 11.6787 21.028 12.2041V24.7091Z" fill="black"/>
</svg>
